<svg width="1600" height="950" viewBox="0 0 1600 950" fill="none" xmlns="http://www.w3.org/2000/svg">
  <rect width="1600" height="950" fill="#062B63"/>
  <circle cx="280" cy="260" r="320" fill="#0057B8" opacity="0.45"/>
  <circle cx="1260" cy="720" r="420" fill="#00A878" opacity="0.32"/>
  <circle cx="1120" cy="180" r="220" fill="#60A5FA" opacity="0.24"/>
  <path d="M0 725C260 610 442 725 720 650C998 575 1180 382 1600 460V950H0V725Z" fill="white" opacity="0.08"/>
  <path d="M0 800C310 700 510 800 790 725C1070 650 1280 520 1600 590V950H0V800Z" fill="white" opacity="0.1"/>
  <g opacity="0.18">
    <rect x="1030" y="250" width="290" height="190" rx="28" fill="white"/>
    <rect x="1070" y="295" width="170" height="18" rx="9" fill="#062B63"/>
    <rect x="1070" y="335" width="210" height="14" rx="7" fill="#062B63"/>
    <rect x="1070" y="365" width="150" height="14" rx="7" fill="#062B63"/>
  </g>
  <g opacity="0.16">
    <rect x="1120" y="490" width="240" height="160" rx="26" fill="white"/>
    <rect x="1160" y="530" width="130" height="16" rx="8" fill="#062B63"/>
    <rect x="1160" y="566" width="165" height="12" rx="6" fill="#062B63"/>
    <rect x="1160" y="594" width="100" height="12" rx="6" fill="#062B63"/>
  </g>
</svg>
