<svg width="1200" height="700" viewBox="0 0 1200 700" fill="none" xmlns="http://www.w3.org/2000/svg">
<rect width="1200" height="700" fill="#F8FBFF"/>
<rect x="0" y="0" width="1200" height="190" fill="#062B63"/>
<circle cx="980" cy="130" r="180" fill="#00A878" opacity="0.35"/>
<rect x="110" y="160" width="260" height="360" rx="38" fill="white"/>
<rect x="470" y="120" width="260" height="440" rx="38" fill="white"/>
<rect x="830" y="160" width="260" height="360" rx="38" fill="white"/>
<circle cx="240" cy="270" r="72" fill="#0057B8"/>
<circle cx="600" cy="270" r="72" fill="#0057B8"/>
<circle cx="960" cy="270" r="72" fill="#0057B8"/>
<rect x="170" y="380" width="140" height="20" rx="10" fill="#062B63"/>
<rect x="525" y="380" width="150" height="20" rx="10" fill="#062B63"/>
<rect x="895" y="380" width="130" height="20" rx="10" fill="#062B63"/>
<rect x="155" y="420" width="170" height="14" rx="7" fill="#0057B8" opacity="0.35"/>
<rect x="510" y="420" width="180" height="14" rx="7" fill="#0057B8" opacity="0.35"/>
<rect x="870" y="420" width="180" height="14" rx="7" fill="#0057B8" opacity="0.35"/>
</svg>